<svg xmlns="http://www.w3.org/2000/svg" xmlns:xlink="http://www.w3.org/1999/xlink" width="256" height="256" version="1"><title>facebook web</title><defs><linearGradient id="a"><stop offset="0" stop-color="#fff"/><stop offset="1" stop-color="#fff" stop-opacity="0"/></linearGradient><linearGradient xlink:href="#a" id="b" gradientUnits="userSpaceOnUse" gradientTransform="matrix(-.59146 0 0 .59146 210.022 142.232)" x1="-344.153" y1="274.711" x2="-395.849" y2="425.4"/></defs><g transform="translate(-373.642 -318.344)"><rect transform="scale(-1 1)" ry="35.488" rx="35.488" y="328.344" x="-619.642" height="236" width="236" fill="#0037c1" fill-rule="evenodd"/><path d="M557.29 338.433H445.994c-29.46 0-53.178 23.912-53.178 53.615V500.64c.954 23.185 4.622 8.528 11.604-17.148 8.115-29.841 34.542-55.922 66.725-75.469 24.565-14.919 52.06-24.446 102.109-25.352 28.384-.514 25.878-36.84-15.962-44.238z" opacity=".3" fill="url(#b)" fill-rule="evenodd"/><path d="M544.543 538.495h-38.074v-92.906h-19.021v-32.017h19.021V394.35c0-26.12 10.74-41.651 41.256-41.651h25.406v32.02h-15.88c-11.88 0-12.665 4.474-12.665 12.825l-.043 16.025h28.767l-3.366 32.017h-25.401v92.909z" fill="#fff"/></g></svg>